<svg xmlns="http://www.w3.org/2000/svg" viewBox="0 0 85.75 85.75">
  <defs>
    <style>
      .cls-1 {
        fill: #ee8322;
      }

      .cls-2 {
        fill: #fff;
      }

      .cls-3 {
        fill: none;
        stroke: #ee8322;
        stroke-miterlimit: 10;
        stroke-width: 5px;
        stroke-dasharray: 0.31 1.29;
      }
    </style>
  </defs>
  <title>calendar-icon</title>
  <g id="Layer_2" data-name="Layer 2">
    <g id="Layer_1-2" data-name="Layer 1">
      <g>
        <circle class="cls-1" cx="42.88" cy="42.88" r="36"/>
        <g id="g3027">
          <path id="path3029" class="cls-2" d="M24.8,62.59h7.39V55.2H24.8Zm9,0h8.22V55.2H33.84Zm-9-9h7.39V45.34H24.8Zm9,0h8.22V45.34H33.84Zm-9-9.86h7.39V36.3H24.8Zm18.9,18.9h8.22V55.2H43.7ZM33.84,43.7h8.22V36.3H33.84Zm19.72,18.9H61V55.2H53.56Zm-9.86-9h8.22V45.34H43.7Zm-9-22.18V24a.83.83,0,0,0-.82-.82H32.19a.83.83,0,0,0-.82.82v7.39a.83.83,0,0,0,.82.82h1.64a.83.83,0,0,0,.82-.82Zm18.9,22.18H61V45.34H53.56ZM43.7,43.7h8.22V36.3H43.7Zm9.86,0H61V36.3H53.56Zm.82-12.32V24a.83.83,0,0,0-.82-.82H51.91a.83.83,0,0,0-.82.82v7.39a.83.83,0,0,0,.82.82h1.64a.83.83,0,0,0,.82-.82Zm9.86-1.64V62.59A3.33,3.33,0,0,1,61,65.88H24.8a3.33,3.33,0,0,1-3.29-3.29V29.73a3.33,3.33,0,0,1,3.29-3.29h3.29V24a4.12,4.12,0,0,1,4.11-4.11h1.64A4.12,4.12,0,0,1,37.95,24v2.46H47.8V24a4.12,4.12,0,0,1,4.11-4.11h1.64A4.12,4.12,0,0,1,57.66,24v2.46H61a3.33,3.33,0,0,1,3.29,3.29Z"/>
        </g>
      </g>
      <circle class="cls-3" cx="42.88" cy="42.88" r="40.38" transform="translate(-0.26 0.26) rotate(-0.34)"/>
    </g>
  </g>
</svg>
