<svg xmlns="http://www.w3.org/2000/svg" viewBox="0 0 142.49 65">
  <defs>
    <style>
      .cls-1 {
        fill: #231f20;
      }
    </style>
  </defs>
  <title>corwin logo</title>
  <g id="Layer_2" data-name="Layer 2">
    <g id="Layer_1-2" data-name="Layer 1">
      <g>
        <path class="cls-1" d="M122.58,35.88A1.92,1.92,0,1,1,124.5,34a1.9,1.9,0,0,1-1.92,1.92"/>
        <path class="cls-1" d="M122.58,57.31a1.6,1.6,0,0,1-1.6-1.59V40a1.59,1.59,0,0,1,3.19,0V55.72a1.6,1.6,0,0,1-1.59,1.59"/>
        <path class="cls-1" d="M54.12,57.42H54a6.13,6.13,0,0,1-6.15-6.11v-6.8A6.16,6.16,0,0,1,54,38.37h.13a6.13,6.13,0,0,1,5.37,3.19,1.59,1.59,0,1,1-2.8,1.53,2.93,2.93,0,0,0-2.57-1.53H54a2.94,2.94,0,0,0-2.93,3v6.8A2.93,2.93,0,0,0,54,54.23h.13a2.9,2.9,0,0,0,2.57-1.56,1.61,1.61,0,1,1,2.83,1.53,6.15,6.15,0,0,1-5.4,3.22"/>
        <path class="cls-1" d="M69,57.42h-.13a6.11,6.11,0,0,1-6.11-6.11v-6.8a6.13,6.13,0,0,1,6.11-6.15H69a6.13,6.13,0,0,1,6.11,6.15v6.8A6.11,6.11,0,0,1,69,57.42m2.93-12.91a2.94,2.94,0,0,0-2.93-3h-.13a2.94,2.94,0,0,0-2.93,3v6.8a2.93,2.93,0,0,0,2.93,2.93H69a2.93,2.93,0,0,0,2.93-2.93Z"/>
        <path class="cls-1" d="M88.38,42.07l-.55-.2a3.59,3.59,0,0,0-3.28.46A3.55,3.55,0,0,0,83,45.26V55.73a1.61,1.61,0,0,1-3.22,0V45.26a6.77,6.77,0,0,1,9.07-6.37l.55.19a1.57,1.57,0,0,1,1,2,1.61,1.61,0,0,1-2,1"/>
        <path class="cls-1" d="M140.86,57.26a1.6,1.6,0,0,1-1.59-1.63V44.51a2.94,2.94,0,0,0-2.93-3h-.13a3,3,0,0,0-2.93,3V55.63a1.59,1.59,0,1,1-3.19,0V44.51a6.13,6.13,0,0,1,6.11-6.15h.13a6.16,6.16,0,0,1,6.15,6.15V55.63a1.61,1.61,0,0,1-1.63,1.63"/>
        <path class="cls-1" d="M105.94,40.09a1.58,1.58,0,1,0-3.16,0V51.22a3,3,0,0,1-3,3H99.7a3,3,0,0,1-2.93-3V40.09a1.59,1.59,0,1,0-3.19,0V51.22a6.13,6.13,0,0,0,6.11,6.14h.13a6.07,6.07,0,0,0,4.53-2,6,6,0,0,0,4.52,2H109a6.16,6.16,0,0,0,6.15-6.14V40.09a1.61,1.61,0,1,0-3.22,0V51.22a2.94,2.94,0,0,1-2.93,3h-.13a3,3,0,0,1-2.93-3Z"/>
        <path class="cls-1" d="M21.37,32.34a11.55,11.55,0,0,1,1.19-5.09A19.05,19.05,0,1,0,37.82,42.87,11.58,11.58,0,0,1,21.37,32.34"/>
        <path class="cls-1" d="M44.56,32.34a11.59,11.59,0,0,0-22-5.09A19,19,0,0,1,37.82,42.87a11.59,11.59,0,0,0,6.74-10.52"/>
        <path class="cls-1" d="M20,15.6a8.54,8.54,0,1,1-8.54-8.53A8.53,8.53,0,0,1,20,15.6"/>
        <path class="cls-1" d="M26.67,4.16A4.16,4.16,0,1,1,22.51,0a4.16,4.16,0,0,1,4.16,4.16"/>
      </g>
    </g>
  </g>
</svg>
