<svg xmlns="http://www.w3.org/2000/svg" viewBox="0 0 157.74 71.96">
  <defs>
    <style>
      .cls-1 {
        fill: #bdd431;
      }

      .cls-2 {
        fill: #0068ad;
      }

      .cls-3 {
        fill: #ee8322;
      }
    </style>
  </defs>
  <title>corwin-logo</title>
  <g id="Layer_2" data-name="Layer 2">
    <g id="Layer_1-2" data-name="Layer 1">
      <g>
        <path class="cls-1" d="M135.7,39.72a2.12,2.12,0,1,1,2.12-2.12,2.1,2.1,0,0,1-2.12,2.12"/>
        <path class="cls-2" d="M135.7,63.44a1.77,1.77,0,0,1-1.77-1.76V44.33a1.76,1.76,0,0,1,3.53,0V61.68a1.77,1.77,0,0,1-1.76,1.76"/>
        <path class="cls-2" d="M59.91,63.57h-.14A6.79,6.79,0,0,1,53,56.8V49.28a6.82,6.82,0,0,1,6.8-6.8h.14A6.79,6.79,0,0,1,65.85,46a1.76,1.76,0,1,1-3.1,1.69A3.24,3.24,0,0,0,59.91,46h-.14a3.26,3.26,0,0,0-3.24,3.28V56.8A3.25,3.25,0,0,0,59.77,60h.14a3.2,3.2,0,0,0,2.84-1.73A1.78,1.78,0,1,1,65.89,60a6.81,6.81,0,0,1-6,3.56"/>
        <path class="cls-2" d="M76.37,63.57h-.14a6.76,6.76,0,0,1-6.77-6.77V49.28a6.79,6.79,0,0,1,6.77-6.8h.14a6.79,6.79,0,0,1,6.77,6.8V56.8a6.76,6.76,0,0,1-6.77,6.77m3.24-14.29A3.26,3.26,0,0,0,76.37,46h-.14A3.26,3.26,0,0,0,73,49.28V56.8A3.25,3.25,0,0,0,76.23,60h.14a3.25,3.25,0,0,0,3.24-3.24Z"/>
        <path class="cls-2" d="M97.84,46.58l-.61-.22a4,4,0,0,0-3.63.5,3.92,3.92,0,0,0-1.66,3.24V61.69a1.78,1.78,0,0,1-3.56,0V50.1a7.49,7.49,0,0,1,10-7.06l.61.21a1.74,1.74,0,0,1,1.08,2.23,1.78,1.78,0,0,1-2.27,1.08"/>
        <path class="cls-2" d="M155.94,63.39a1.77,1.77,0,0,1-1.76-1.8V49.28A3.26,3.26,0,0,0,150.93,46h-.14a3.28,3.28,0,0,0-3.24,3.28V61.59a1.76,1.76,0,1,1-3.53,0V49.28a6.79,6.79,0,0,1,6.77-6.8h.14a6.82,6.82,0,0,1,6.8,6.8V61.59a1.78,1.78,0,0,1-1.8,1.8"/>
        <path class="cls-2" d="M117.28,44.38a1.75,1.75,0,1,0-3.5,0V56.7A3.28,3.28,0,0,1,110.51,60h-.14a3.28,3.28,0,0,1-3.24-3.27V44.38a1.76,1.76,0,1,0-3.53,0V56.7a6.79,6.79,0,0,0,6.77,6.8h.14a6.72,6.72,0,0,0,5-2.25,6.68,6.68,0,0,0,5,2.25h.14a6.82,6.82,0,0,0,6.8-6.8V44.38a1.78,1.78,0,1,0-3.56,0V56.7A3.26,3.26,0,0,1,120.67,60h-.14a3.29,3.29,0,0,1-3.25-3.27Z"/>
        <path class="cls-2" d="M23.65,35.81A12.78,12.78,0,0,1,25,30.17a21.09,21.09,0,1,0,16.9,17.29A12.82,12.82,0,0,1,23.65,35.81"/>
        <path class="cls-1" d="M49.33,35.81A12.83,12.83,0,0,0,25,30.17a21.09,21.09,0,0,1,16.9,17.29,12.83,12.83,0,0,0,7.46-11.65"/>
        <path class="cls-3" d="M22.09,17.27a9.45,9.45,0,1,1-9.45-9.45,9.45,9.45,0,0,1,9.45,9.45"/>
        <path class="cls-2" d="M29.52,4.6A4.6,4.6,0,1,1,24.92,0a4.6,4.6,0,0,1,4.6,4.6"/>
      </g>
    </g>
  </g>
</svg>
