<svg xmlns="http://www.w3.org/2000/svg" viewBox="0 0 85.75 85.75">
  <defs>
    <style>
      .cls-1 {
        fill: #0068ad;
      }

      .cls-2 {
        fill: #fff;
      }

      .cls-3 {
        fill: none;
        stroke: #0068ad;
        stroke-miterlimit: 10;
        stroke-width: 5px;
        stroke-dasharray: 0.31 1.29;
      }
    </style>
  </defs>
  <title>employees-icon</title>
  <g id="Layer_2" data-name="Layer 2">
    <g id="Layer_1-2" data-name="Layer 1">
      <g>
        <g>
          <circle class="cls-1" cx="42.88" cy="42.88" r="36" transform="matrix(1, -0.01, 0.01, 1, -0.26, 0.26)"/>
          <g>
            <path class="cls-2" d="M41.64,29.87a5.24,5.24,0,1,0-5.26-5.21A5.23,5.23,0,0,0,41.64,29.87Z"/>
            <path class="cls-2" d="M55.09,30.71A4.74,4.74,0,1,0,50.33,26,4.73,4.73,0,0,0,55.09,30.71Z"/>
            <path class="cls-2" d="M30.65,36.39a7.63,7.63,0,0,1,1.22-4.19,4.86,4.86,0,0,0-1.11-.12l-5.89,0a4.8,4.8,0,0,0-4.75,4.82l0,7.53a4.79,4.79,0,0,0,2.61,4.23l.09,14.72,3.87,0,2.84,0,3.55,0L33,50.05a7.68,7.68,0,0,1-2.35-5.47l0-8.19Z"/>
            <path class="cls-2" d="M49.93,36.27a5.22,5.22,0,0,0-5.24-5.17l-6.41,0a5.22,5.22,0,0,0-5.17,5.24l0,8.19A5.21,5.21,0,0,0,36,49.17l.1,16,4.21,0,3.09,0,3.86,0,0-8.1c0-.12,0-.23,0-.34s0-.22,0-.33l0-7.22A5.23,5.23,0,0,0,50,44.47l0-8.19Z"/>
            <path class="cls-2" d="M27.89,21.4a4.74,4.74,0,1,0,4.76,4.71A4.74,4.74,0,0,0,27.89,21.4Z"/>
            <path class="cls-2" d="M57.06,48a8.55,8.55,0,1,0,8.62,8.51A8.56,8.56,0,0,0,57.06,48Zm5.59,9.52-4.53,0c0,2,0,3.76,0,4.53a1,1,0,0,1-1,1,1,1,0,0,1-1-1c0-.77,0-2.58,0-4.54l-4.54,0a1,1,0,0,1-1-1,1,1,0,0,1,1-1l4.53,0c0-2,0-3.77,0-4.53a1,1,0,0,1,1-1,1,1,0,0,1,1,1c0,.77,0,2.57,0,4.53l4.52,0a1,1,0,0,1,1,1A1,1,0,0,1,62.65,57.47Z"/>
          </g>
          <path class="cls-2" d="M52.51,44.45A7.63,7.63,0,0,1,52,47.3a10.54,10.54,0,0,1,10-.14,4.74,4.74,0,0,0,1-3l0-7.53a4.8,4.8,0,0,0-4.81-4.75l-5.89,0a4.86,4.86,0,0,0-1.11.14,7.62,7.62,0,0,1,1.27,4.18Z"/>
        </g>
        <circle class="cls-3" cx="42.88" cy="42.88" r="40.38" transform="translate(-0.26 0.26) rotate(-0.34)"/>
      </g>
    </g>
  </g>
</svg>
