<svg xmlns="http://www.w3.org/2000/svg" xmlns:xlink="http://www.w3.org/1999/xlink" viewBox="0 0 70.72 70.72">
  <defs>
    <style>
      .cls-1 {
        fill: none;
      }

      .cls-2 {
        clip-path: url(#clip-path);
      }

      .cls-3 {
        fill: #231f20;
      }
    </style>
    <clipPath id="clip-path" transform="translate(0 0)">
      <rect class="cls-1" width="70.72" height="70.72"/>
    </clipPath>
  </defs>
  <title>instagram</title>
  <g id="Layer_2" data-name="Layer 2">
    <g id="Layer_1-2" data-name="Layer 1">
      <g id="instagram">
        <g class="cls-2">
          <g class="cls-2">
            <path class="cls-3" d="M56.74,35.36a21.38,21.38,0,1,1-42.36-4.11H0V59.67A11.05,11.05,0,0,0,11.05,70.72H59.67A11.05,11.05,0,0,0,70.72,59.67V31.25H56.34a21.5,21.5,0,0,1,.4,4.11M59.67,0H11.05A11.05,11.05,0,0,0,0,11.05V23H17.9a21.37,21.37,0,0,1,34.91,0h17.9v-12A11.05,11.05,0,0,0,59.67,0m5.41,13.65a2,2,0,0,1-2,2H57.18a2,2,0,0,1-2-2V7.73a2,2,0,0,1,2-2H63.1a2,2,0,0,1,2,2ZM48.52,35.36A13.16,13.16,0,1,0,35.36,48.52,13.16,13.16,0,0,0,48.52,35.36" transform="translate(0 0)"/>
          </g>
        </g>
      </g>
    </g>
  </g>
</svg>
