<svg xmlns="http://www.w3.org/2000/svg" viewBox="0 0 85.75 85.75">
  <defs>
    <style>
      .cls-1 {
        fill: #bdd431;
      }

      .cls-2 {
        fill: #fff;
      }

      .cls-3 {
        fill: none;
        stroke: #bdd431;
        stroke-miterlimit: 10;
        stroke-width: 5px;
        stroke-dasharray: 0.31 1.29;
      }
    </style>
  </defs>
  <title>leaf-icon</title>
  <g id="Layer_2" data-name="Layer 2">
    <g id="Layer_1-2" data-name="Layer 1">
      <g>
        <circle class="cls-1" cx="42.88" cy="42.88" r="36"/>
        <g>
          <path class="cls-2" d="M68.91,41S52.77,37.32,45,45c-5.65,5.65-5.21,15.81-4.58,20.85A145.47,145.47,0,0,1,59.25,50.61,145.08,145.08,0,0,1,44,69.39c5,.64,15.2,1.07,20.85-4.58C72.54,57.1,68.91,41,68.91,41Z"/>
          <path class="cls-2" d="M36.26,49.13a20.78,20.78,0,0,1,4.86-8,21.92,21.92,0,0,1,10.4-5.56C47.44,23.94,33.83,15.33,33.83,15.33S15,27.25,15,42c0,10.77,10.1,20,15.51,24.23.36-18.23,3.33-40.46,3.33-40.46S35.27,36.47,36.26,49.13Z"/>
        </g>
      </g>
      <circle class="cls-3" cx="42.88" cy="42.88" r="40.38" transform="translate(-0.26 0.26) rotate(-0.34)"/>
    </g>
  </g>
</svg>
