<?xml version="1.0" encoding="utf-8"?>
<!-- Generator: Adobe Illustrator 21.0.2, SVG Export Plug-In . SVG Version: 6.00 Build 0)  -->
<svg version="1.1" id="Layer_1" xmlns="http://www.w3.org/2000/svg" xmlns:xlink="http://www.w3.org/1999/xlink" x="0px" y="0px"
	 viewBox="0 0 70.7 69.7" style="enable-background:new 0 0 70.7 69.7;" xml:space="preserve">
<style type="text/css">
	.st0{clip-path:url(#SVGID_2_);}
	.st1{clip-path:url(#SVGID_4_);}
	.st2{fill:#0068AD;}
</style>
<title>linkedIn</title>
<g>
	<g>
		<g id="Layer_2">
			<g id="Layer_1-2">
				<defs>
					<rect id="SVGID_1_" width="70.7" height="69.7"/>
				</defs>
				<clipPath id="SVGID_2_">
					<use xlink:href="#SVGID_1_"  style="overflow:visible;"/>
				</clipPath>
				<g id="linkedIn" class="st0">
					<g>
						<defs>
							<rect id="SVGID_3_" width="70.7" height="69.7"/>
						</defs>
						<clipPath id="SVGID_4_">
							<use xlink:href="#SVGID_3_"  style="overflow:visible;"/>
						</clipPath>
						<g class="st1">
							<path class="st2" d="M16,7.6c0,4.2-3.1,7.6-8.2,7.6c-4.1,0.2-7.6-2.9-7.8-7c0-0.2,0-0.3,0-0.5C0,3.3,3.2,0,8.1,0
								S15.9,3.3,16,7.6 M0.4,21.1h15.1v48.6H0.4V21.1z M24.6,36.6c0-6.1-0.2-11.1-0.4-15.5h13.1l0.7,6.8h0.3c3.3-5,9-8,15-7.9
								c9.9,0,17.4,6.7,17.4,21v28.7H55.6v-27c0-6.3-2.2-10.5-7.7-10.5c-4.2,0-6.7,2.9-7.8,5.7c-0.4,1.2-0.6,2.5-0.5,3.8v28.1H24.6
								V36.6z"/>
						</g>
					</g>
				</g>
			</g>
		</g>
	</g>
</g>
</svg>
