<?xml version="1.0" encoding="utf-8"?>
<!-- Generator: Adobe Illustrator 21.0.2, SVG Export Plug-In . SVG Version: 6.00 Build 0)  -->
<svg version="1.1" id="Layer_1" xmlns="http://www.w3.org/2000/svg" xmlns:xlink="http://www.w3.org/1999/xlink" x="0px" y="0px"
	 viewBox="0 0 70.7 57.5" style="enable-background:new 0 0 70.7 57.5;" xml:space="preserve">
<style type="text/css">
	.st0{clip-path:url(#SVGID_2_);}
	.st1{clip-path:url(#SVGID_4_);}
	.st2{fill:#0068AD;}
</style>
<title>twitter</title>
<g>
	<g>
		<g id="Layer_2">
			<g id="Layer_1-2">
				<defs>
					<rect id="SVGID_1_" width="70.7" height="57.5"/>
				</defs>
				<clipPath id="SVGID_2_">
					<use xlink:href="#SVGID_1_"  style="overflow:visible;"/>
				</clipPath>
				<g id="twitter" class="st0">
					<g>
						<defs>
							<rect id="SVGID_3_" width="70.7" height="57.5"/>
						</defs>
						<clipPath id="SVGID_4_">
							<use xlink:href="#SVGID_3_"  style="overflow:visible;"/>
						</clipPath>
						<g class="st1">
							<path class="st2" d="M70.7,6.8c-2.6,1.2-5.5,1.9-8.3,2.3c3-1.8,5.3-4.6,6.4-8c-2.8,1.7-6,2.9-9.2,3.5C54.1-1.2,44.9-1.5,39,4
								c-3.8,3.5-5.4,8.8-4.2,13.9C23.2,17.2,12.3,11.7,4.9,2.7C1.1,9.3,3.1,17.7,9.4,22c-2.3-0.1-4.6-0.7-6.6-1.8
								c0,0.1,0,0.1,0,0.2c0,6.9,4.9,12.9,11.6,14.2c-2.1,0.6-4.4,0.7-6.6,0.3c1.9,5.9,7.3,10,13.6,10.1c-5.1,4-11.5,6.2-18,6.2
								c-1.2,0-2.3,0-3.5-0.2c6.6,4.3,14.4,6.5,22.2,6.5c26.7,0,41.3-22.1,41.3-41.3c0-0.6,0-1.3,0-1.9C66.4,12.3,68.8,9.7,70.7,6.8
								"/>
						</g>
					</g>
				</g>
			</g>
		</g>
	</g>
</g>
</svg>
