<svg xmlns="http://www.w3.org/2000/svg" viewBox="0 0 85.75 85.75">
  <defs>
    <style>
      .cls-1 {
        fill: #bcbec0;
      }

      .cls-2 {
        fill: #fff;
      }

      .cls-3 {
        fill: none;
        stroke: #bcbec0;
        stroke-miterlimit: 10;
        stroke-width: 5px;
        stroke-dasharray: 0.31 1.29;
      }
    </style>
  </defs>
  <title>washington-icon</title>
  <g id="Layer_2" data-name="Layer 2">
    <g id="Layer_1-2" data-name="Layer 1">
      <g>
        <g>
          <circle class="cls-1" cx="42.88" cy="42.88" r="36"/>
          <path class="cls-2" d="M71.38,57.93l0-.23.31-.23L72,56.9l-.38-.31v-.48l-.14-.35-.26-.57-.3-.27-.08-.34.19-.52,0-29.3H66.42v.3l-.2-.33-39.06-.07.15.46h-.6v.49h.42l0,.18H27l-.27.3.35.34.28.26v.49H28l-.13.39.29.2.32-.35h.3l.34.28-.11.24-.09.35.22.26v.3h-.84l-.09-.21L28,28.35l-.42-.57-.15.15.11.32.61.59h-.56l-.25.44-.11.37.11.83.11.49.46.38.15.21-.08.17s-.23.53-.31.65L27,33.3v.59l.56.37.37.23.18.15a2.46,2.46,0,0,1,.18.53c0,.11,0,.72,0,.72s.4.31.4.42v.46l.44-.38.31.61.44.34.25-.27V36.4l.36-.33v-.51l-.61-.63-.45-.59-.15-.28.15-.15.17-.12.1,0,.53.17,0,.14v.28l.26.51.2.53.31.38.27.29-.11.56h-.26l-.23.19-.11.3-.12.6-.43.57v1l-.06.25h-.24l0,.51.38.45.19.2L30,41h-.18l0,.33.08.37.23.34,0,.3L30,42.7l.19.3.11.38v.33H30l-.28.25,0,.17.23.18.23.41h-.44l-.37-.41L29,44.13l-.11.38-.23.42-.15.46-.32.46-.25-.5V45.2h.36v-.48h-.36V45h-.6v0l-.14-.38.12-.25.08-.4.27-.19.27-.38.23-.15.11.23-.34.31-.11.41-.11.35.27,0,.27-.21.15.25.23-.25,0-.4-.11-.23.19-.11.08-.27.23.34.23.15v-.27l.18.19.35-.27.27-.31L29.73,43l0-.46v-.39L29.46,42l-.27,0s-.16.08-.16.19v.47l-.21.14.08-.57.08-.38-.15-.4,0-.22h.06l.27-.27-.25-.39.22-.43v-.35l-.48-.37h0V39l.26.27.35-.08,0-.38,0-.34v-.14L29.17,38l-.3-.72-.26,0-.27-.19.19.53,0,.28,0,.28L28.23,38l-.34.5-.27.34-.19.38-.08.31,0,.34-.27.23-.34.15-.42.15-.42.27-.31.46-.46.65-.46.61-.23.79.34.3h.42l.38-.38.34-.16.15.26-.42.15-1,.34-.47.08-.21-.42.33-.88.84-1.41.69-.72.19-.5.34.11.42-.08.11-.31.23-.57.27-.57.31-.42.34-.27,0-.23L28,37.2l-.31.15.1-.53-.32-.46v-.52l.32.22,0-.42-.15-.57-.27.19-.11.32,0,.27H27l-.07-.57.31-.35-.15-.27-.59.22-.28.19v.35l.32.4,0,.17-.11.34-.27,0,.08-.46h-.21l-.15-.29,0-.31h-.35l-.36.05v.24l.08.44-.41-.46,0-.53-.27-.23-.15-.23s0-.5-.08-.38l-.25.34-.5.42-.72,0-.42,0-.53-.15-.27-.15-.31.11L21,34.62l-.38.08-.34-.31-.5,0-.76.11-1.48-.09L16.92,34l-.27-.22-.8-.41H15.5l-.25-.22L14.79,33l-.65-.31-.69-.5L13,32l-.54-.15-.43,0v.25l.35.24s.16,0,.16.15a1.16,1.16,0,0,1-.07.31l0,.38-.19.69-.19.45s-.15.19,0,.31a2.65,2.65,0,0,1,.3.84l.15,1.14.15.57.27.38.27.19.19.34s.46.19.46.34a3,3,0,0,0,.11.53l.38.27.31,1L15,41.5l.11,1.06.11,1,.31.56.31.39a2.07,2.07,0,0,0,.15.61,5.26,5.26,0,0,1,.34,1c0,.11-.08,1.19-.08,1.19l.11,1h.3l0-.38,0-.39.19-.2.19-.12.31.08.11.34.42.19.57.15.38.29-.72.24-.42.15-.27.23.08.27.15.27h-.44l-.2-.53-.19-.24s-.34,0-.27.07.38.88.38.88,0,.61,0,.72.11.19.27.3a4.42,4.42,0,0,0,.69.3l.27-.31.34-.15.27.23.31.23-.57.19-.15.53-.19.19,0,.27.48.85-.38.31,0,.46-.34-.15-.19-.19-.05.34.33.42v.4l-.07.3-.21-.3h-.2l-.11-.8.08-1.11-.15-.5,0-.5-.19-.13L17,55.7h.31l.08-.3.34.07.27.21.42.44.38-.23s.27-.42.31-.27.38.12.38.12l.38-.22H20l.12.3.5.07.53.07.5-.2.34.37.34.52h-.41a.71.71,0,0,0,.25.3l.46.22.11-.22.27.24h.41l.31-.3.27-.18h.5l.72.47a2.08,2.08,0,0,1,.31.3,5.63,5.63,0,0,0,.53.49l.5.91.42.42-.15.27.08,1,.15,1,0,.57.15.44.5.44h.85a6.69,6.69,0,0,1,.95.36c.15.11.8.07.84.18s.57,0,.57,0l.5,0,.8-.35s1.14-.31,1.14-.42.31-.5.31-.5l.57-.27.57-.08.61.08.61-.15.57,0,.46.17.53.13h.53l.85.51.15.37.72-.2.34-.2h.93l.17.15.42-.31,1.14-.5.38-.27.46-.15.46.34.46.31,1.14-.23.84-.19.72-.61s.5-.42.65-.38,2.56-.53,2.56-.53l.27,0L51,60l.31-.38.31.08.57.14,1.64-.32h.74l.44-.1.69-.35.41-.31,15.81,0v-.3l-.39-.39Zm-42-24.64-.27.3h-.27v.78l.41.57s0,0,.23.2l.62.43,0,.48-.46-.27-.27-.31-.3-.27-.24.31,0,.38-.35-.5v-.61L28.3,34l-.17-.23-.35.08-.4-.15.54-.19v-.53l.37.15.23-.11.38,0,.24-.31-.54-.34-.19-.23.11-.34-.27-.14.14-.28v-.3s.23,0,.23.14,0,.44,0,.44l.35.31h.29l.17.33.34.18.34.26,0,.4,0,.16h-.61Zm-1.76,7,.27.38.15.27.16.27.16-.34v-.33l.2.26,0,.43h0l-.23.22-.32.14-.29.12.23-.57L27.66,41l0-.23-.11-.23ZM24.7,46l.53-.34.18,0v-.3l.12-.08.26.35-.3.24-.15.12-.19.31-.46.23L25,46Zm2.78.69-.31-.5-.44-.34-.18-.08v.63l-.2-.63-.22.15V47l-.24-.32v-.64l-.27.37-.27.31V47l-.21-.28.43-.57.15-.19.15-.19,0-.25.28.11h.24v-.27L26.19,45v-.66l-.09,0,.34-.14.15-.25.12-.34.27.23.08.37-.46.47,0,.38.23.53.23.17.21.62h.62l-.17.19ZM25.53,34.67h.3V35h-.3Zm3.6,6.73h.3v.36h-.3ZM25.65,27.29h-.12V27h.12Zm.48.54h-.3v-.3h.3Zm1.8.12h.36v.3h-.36Zm-4,.66h-.42v-.36H24Zm0,.18h.3V29H24Zm1.2-.36h-.3v-.3h.3Zm1.44,1.08H27v.6h-.42Zm-1.32,0h.57l.21.59.08-.31.28.33v.24h.36v.27l-.17.09.19.47-.2.2h-.15l-.31-.21-.5,0v-.57l.18-.51h-.54v.21l-.11.15.13.38.22.34H25.2s-.31-.25-.3-.37-.3-.2-.3-.2l-.3-.15-.3-.4s-.14-.31-.21-.3.21-.3.21-.3l.3-.28.59.3.3.27.11,0ZM25,29l.26-.36s.38-.29.37-.35a4.43,4.43,0,0,1,.38-.34c.14-.09.41,0,.41,0l.18.18.17.3.22.21v.33l-.41.37-.17-.35-.33-.34H26l.12.36v.26l0,.25-.56-.53,0,.31h-.33Z"/>
        </g>
        <g>
          <path class="cls-1" d="M36.35,47.47A6.41,6.41,0,1,0,23.7,49h0c.79,4.74,4,7.88,6.24,11.65,2.24-3.77,5.45-6.91,6.24-11.65h0A6.41,6.41,0,0,0,36.35,47.47Z"/>
          <circle class="cls-2" cx="29.94" cy="47.45" r="4.42"/>
        </g>
      </g>
      <circle class="cls-3" cx="42.88" cy="42.88" r="40.38" transform="translate(-0.26 0.26) rotate(-0.34)"/>
    </g>
  </g>
</svg>
